# xmcd
#
# Track frame offsets: 
#        150
#        9661
#        22175
#        31086
#        46377
#        61289
#        78058
#        88397
#        99902
#        111572
#        126527
#        139475
#        152566
#        168954
#        179629
#        191564
#        202436
#        213285
#        227909
#        240472
#        254223
#        265948
#        279467
#        291161
#
# Disc length: 4054 seconds
#
# Revision: 0
# Processed by: cddbd v1.5.1PL2 Copyright (c) Steve Scherf et al.
# Submitted via: ExactAudioCopy v0.95b3
#
DISCID=700fd418
DTITLE=Various Artist - In God's Country
DYEAR=2003
DGENRE=General Blues
TTITLE0=Johnnie Allan - The Promised Land
TTITLE1=Hank Williams - I'm So Lonesome I Could Cry
TTITLE2=Elvis Presley - Maybellene
TTITLE3=Blind Willie McTell - Lay Some Flowers On My Grave
TTITLE4=Mose Allison - Parchman Farm
TTITLE5=Billie Holiday - Stormy Weather
TTITLE6=Woody Guthrie - This Land Is Your Land
TTITLE7=Patsy Cline - Walkin' After Midnight
TTITLE8=Robert Johnson - If I Had Possession Over Judgment Day
TTITLE9=Jimmie Rodgers - In The Jailhouse Now
TTITLE10=Big Bill Broonzy - How You Want It Done
TTITLE11=B.B. King - When My Heart Beats Like A Hammer
TTITLE12=Tommy McLain - Sweet Dreams
TTITLE13=Big Joe Williams - Don't You Leave Me Here
TTITLE14=The Staple Singers - When Will We Be Paid
TTITLE15=Ramblin' Jack Elliott - Grand Coulee Dam
TTITLE16=Bill Monroe and His Bluegrass Boys - Goodbye Old Pal
TTITLE17=William Bell - Born Under A Bad Sign
TTITLE18=The Rhythm Wreckers - Blue Yodel No.2 (My Loving Gal Lucille)
TTITLE19=Jesse Fuller - San Francisco Bay Blues
TTITLE20=Nite Owls - Memphis Blues
TTITLE21=John Lee Hooker - Crawling King Snake
TTITLE22=Bill Landford and The Landfordaires - Run For A Long Time
TTITLE23=Molly O'Day and The Cumberland Mountain Folks - Heaven's Radio
EXTD=
EXTT0=
EXTT1=
EXTT2=
EXTT3=
EXTT4=
EXTT5=
EXTT6=
EXTT7=
EXTT8=
EXTT9=
EXTT10=
EXTT11=
EXTT12=
EXTT13=
EXTT14=
EXTT15=
EXTT16=
EXTT17=
EXTT18=
EXTT19=
EXTT20=
EXTT21=
EXTT22=
EXTT23=
PLAYORDER=
